<svg xmlns="http://www.w3.org/2000/svg" width="36" height="36" fill="none">
  <defs/>
  <path fill="#1E2537" fill-rule="evenodd" d="M30.8765 15.4184c0 3.497-1.1921 6.7157-3.1393 9.2987l6.7158 6.7158c.9934.9934.9934 2.5829 0 3.5764-.4769.5166-1.1524.755-1.7883.755-.6358 0-1.3113-.2781-1.7882-.755l-6.7555-6.7555-.0794-.0795c-2.4638 1.669-5.4442 2.6625-8.6232 2.6625C6.91444 30.8368 0 23.9224 0 15.4184 0 6.91444 6.91444 0 15.4184 0c8.504 0 15.4581 6.91444 15.4581 15.4184zM15.4121 29.8228c7.9817 0 14.4521-6.454 14.4521-14.4154 0-7.96148-6.4704-14.415498-14.4521-14.415498C7.43042.991902.959997 7.44592.959997 15.4074c0 7.9614 6.470423 14.4154 14.452103 14.4154z" clip-rule="evenodd"/>
  <path fill="#fff" fill-rule="evenodd" d="M23.2179 9.88547c.9531 0 1.7258-.77264 1.7258-1.72574-.021-.93805-.7875-1.68753-1.7258-1.68753-.9382 0-1.7047.74948-1.7257 1.68753 0 .9531.7726 1.72574 1.7257 1.72574zM21.4317 7.8055l-4.3776-1.03016.0001-.00009 4.3775 1.03025zm-4.378-1.03025l.0004.00009-1.7002 5.18836 1.6998-5.18845zm1.7344 14.70385c-.8646.8637-2.2569 1.0302-3.426 1.0302-1.1677 0-2.5613-.1665-3.4246-1.0302h6.8506zM5.53018 17.4939c-.79574-.3493-1.30953-1.1362-1.30923-2.0052-.00056-.9201.5745-1.7424 1.43901-2.0575.86451-.3151 1.8338-.0558 2.42552.6488l-2.5553 3.4139zM25.0383 13.423c-.878-.307-1.8542-.0257-2.4341.7016l2.5034 3.4056c.8422-.3272 1.397-1.138 1.397-2.0415-.0002-.9301-.5883-1.7586-1.4663-2.0657z" clip-rule="evenodd"/>
  <path fill="#1E2537" fill-rule="evenodd" d="M4.96836 18.4999c0 3.8066 4.64133 6.9034 10.34664 6.9034 5.7053 0 10.3471-3.0968 10.348-6.9034 0-.2457-.0195-.4879-.0571-.7271.8263-.4623 1.3364-1.3368 1.3321-2.2836-.0016-1.4472-1.1743-2.6199-2.6214-2.6215-.6587-.0014-1.2935.2466-1.7768.6942-1.7301-1.1267-4.0475-1.8538-6.6136-1.9537l1.4156-4.32086 3.7179.87541c.0026 1.19047.9678 2.15445 2.1583 2.15565 1.1913-.0014 2.1568-.96686 2.1582-2.15824-.0012-1.19155-.9667-2.15726-2.1582-2.1587-.8651.00106-1.6463.51757-1.9862 1.31313l-4.0747-.95933-.0091-.00216-.3815-.08996-1.7482 5.33556c-2.663.0501-5.07687.775-6.87138 1.9268-.4762-.4221-1.09167-.6583-1.73742-.6583-1.44694.0019-2.61938 1.1746-2.62105 2.6215.00005.9096.47125 1.7543 1.24522 2.2322-.04325.2557-.06531.516-.06531.779zm.86503 0c0-.2751.029-.5493.0865-.8183.00184-.0031.00325-.0064.00468-.0097l.00181-.0042c.02307-.0523.03542-.1088.03633-.166.3006-1.1462 1.11027-2.1847 2.27504-3.0164.06672-.0256.12623-.067.17344-.1207 1.73051-1.1712 4.18551-1.9035 6.90381-1.9035 2.7461 0 5.2222.747 6.9553 1.9385.0489.0598.113.1052.1856.1315 1.1401.8313 1.9294 1.8629 2.2188 2.9991 0 .0651.0146.1294.0428.1881.0523.2561.0792.5169.0792.7816 0 3.3295-4.2534 6.0384-9.4817 6.0384-5.2282 0-9.48161-2.7085-9.48161-6.0384zm17.42911-4.4164c1.003.8023 1.7392 1.7577 2.1155 2.8061.4394-.3313.6967-.8505.6941-1.4009-.0009-.9696-.7867-1.7555-1.7564-1.7564-.3799-.0006-.7496.1227-1.0532.3512zM4.65349 15.4887c.00095-.9695.78652-1.7552 1.75601-1.7564.35907-.0001.70953.1098 1.00431.3148-1.0069.7946-1.7504 1.7422-2.13923 2.7824-.38754-.3287-.62109-.8161-.62109-1.3408zM23.2175 6.86607c-.7128 0-1.2932.58043-1.2932 1.29365s.5804 1.29323 1.2932 1.29323c.7128 0 1.2933-.58001 1.2933-1.29323 0-.71322-.58-1.29365-1.2933-1.29365zM11.6313 21.7844c.7781.7786 1.9986 1.157 3.7309 1.157 1.7322 0 2.9523-.3784 3.7313-1.157.1092-.1091.1519-.2683.112-.4175-.0399-.1492-.1564-.2658-.3056-.3058-.1491-.04-.3083.0026-.4176.1118-.6085.6076-1.6292.9035-3.1201.9035-1.4914 0-2.5112-.2959-3.1189-.9035-.1689-.169-.4428-.1691-.6118-.0003-.169.1689-.1691.4428-.0002.6118z" clip-rule="evenodd"/>
  <path fill="#FF4500" fill-rule="evenodd" d="M10.2611 17.2426c0-.8806.7392-1.6198 1.6198-1.6198.8806 0 1.5951.7392 1.5951 1.6198 0 .8806-.7141 1.5951-1.5951 1.5951-.8811 0-1.6198-.7145-1.6198-1.5951zm6.9869 0c0-.8815.74-1.6198 1.6215-1.6198.881 0 1.5951.7383 1.5951 1.6198 0 .881-.7136 1.5951-1.5951 1.5951s-1.6215-.7141-1.6215-1.5951z" clip-rule="evenodd"/>
</svg>
