<?xml version="1.0" standalone="no"?>
<!DOCTYPE svg PUBLIC "-//W3C//DTD SVG 20010904//EN"
 "http://www.w3.org/TR/2001/REC-SVG-20010904/DTD/svg10.dtd">
<svg version="1.0" xmlns="http://www.w3.org/2000/svg"
 width="700.000000pt" height="700.000000pt" viewBox="0 0 700.000000 700.000000"
 preserveAspectRatio="xMidYMid meet">
<metadata>
Created by potrace 1.14, written by Peter Selinger 2001-2017
</metadata>
<g transform="translate(0.000000,700.000000) scale(0.100000,-0.100000)"
fill="#000000" stroke="none">
<path d="M2798 6996 c-1 -2 -43 -7 -92 -10 -49 -4 -92 -9 -95 -11 -4 -2 -33
-6 -66 -10 -33 -3 -76 -10 -95 -15 -19 -5 -51 -12 -70 -15 -53 -9 -186 -43
-273 -70 -921 -288 -1655 -1012 -1957 -1928 -38 -115 -69 -231 -90 -342 -6
-27 -12 -61 -15 -75 -3 -14 -8 -45 -11 -70 -3 -25 -7 -52 -9 -60 -12 -44 -19
-199 -19 -390 0 -227 5 -311 29 -455 3 -16 10 -58 15 -92 6 -34 12 -68 15 -75
2 -7 7 -24 9 -38 10 -52 16 -76 42 -164 26 -89 67 -211 84 -251 4 -11 23 -56
41 -100 102 -244 274 -524 454 -740 145 -175 372 -386 560 -521 384 -276 883
-475 1330 -530 22 -3 49 -7 60 -9 50 -10 203 -18 340 -19 137 0 341 11 355 19
3 1 34 6 70 9 36 4 74 9 85 11 11 3 31 7 45 9 125 21 466 118 545 155 11 6 58
26 105 46 110 47 281 138 395 209 l89 56 691 -688 c379 -379 706 -698 725
-710 279 -165 618 -43 727 262 51 145 24 324 -69 446 -10 14 -318 325 -683
691 -366 366 -665 668 -665 672 0 3 29 48 63 99 112 164 214 345 281 498 16
36 37 83 46 105 44 98 136 406 156 520 44 252 56 383 57 590 0 90 -10 294 -17
331 -3 16 -13 85 -22 149 -4 31 -13 78 -30 158 -8 39 -18 83 -20 96 -10 48
-113 348 -147 428 -158 365 -370 676 -646 952 -405 402 -917 686 -1454 805
-120 27 -142 30 -257 46 -41 6 -88 13 -105 16 -32 6 -501 15 -507 10z m467
-200 c39 -4 77 -9 85 -11 8 -2 40 -7 70 -10 30 -3 62 -8 70 -10 8 -2 31 -7 50
-10 113 -19 373 -96 519 -154 96 -39 257 -119 356 -178 53 -32 104 -62 114
-68 68 -40 266 -193 355 -275 468 -431 768 -973 880 -1590 29 -160 40 -299 40
-485 0 -138 -8 -291 -18 -340 -2 -11 -7 -47 -11 -80 -3 -32 -8 -62 -10 -65 -2
-3 -6 -26 -10 -50 -18 -119 -105 -408 -164 -545 -297 -686 -814 -1206 -1496
-1502 -127 -55 -397 -140 -505 -158 -19 -3 -53 -10 -75 -15 -22 -5 -62 -12
-90 -16 -27 -3 -52 -8 -55 -9 -29 -17 -495 -26 -635 -12 -88 8 -215 26 -224
31 -3 2 -26 7 -51 10 -106 14 -415 104 -504 147 -22 10 -43 19 -47 19 -14 0
-200 91 -284 138 -650 366 -1138 983 -1331 1682 -41 149 -81 351 -90 455 -3
28 -7 68 -9 90 -5 47 -6 387 -1 430 2 17 7 62 10 100 7 68 32 225 41 255 2 8
6 26 9 40 8 50 48 195 73 269 105 315 248 580 468 868 80 105 327 352 445 445
355 281 792 484 1211 562 156 29 188 33 304 42 44 3 81 7 82 8 6 5 364 -2 428
-8z"/>
<path d="M4470 5829 c-30 -4 -70 -12 -88 -18 -88 -27 -193 -114 -233 -192 -10
-21 -22 -39 -25 -39 -4 0 -45 9 -93 21 -47 11 -113 26 -146 34 -33 8 -148 35
-255 60 -107 25 -233 55 -279 66 -68 16 -86 18 -92 7 -4 -7 -24 -60 -42 -118
-19 -58 -94 -285 -166 -505 l-130 -400 -38 -1 c-117 -3 -257 -17 -393 -40
-124 -21 -143 -24 -162 -30 -9 -3 -25 -7 -36 -9 -169 -32 -530 -179 -678 -275
l-32 -21 -28 24 c-137 115 -362 135 -538 48 -69 -34 -159 -114 -198 -176 -97
-155 -105 -362 -20 -519 31 -57 118 -155 156 -176 22 -11 25 -18 21 -44 -4
-17 -7 -62 -7 -101 -3 -208 54 -389 185 -585 54 -82 245 -277 317 -325 25 -16
58 -40 73 -52 45 -36 218 -131 325 -178 178 -79 456 -162 603 -180 30 -4 56
-8 59 -10 3 -2 34 -6 70 -10 36 -4 74 -9 85 -12 36 -9 459 -11 540 -3 120 12
188 20 205 25 8 2 33 7 55 10 90 12 227 46 351 85 500 159 879 445 1052 796
76 152 102 269 99 441 l-2 121 28 17 c42 25 123 110 152 158 83 142 93 328 27
474 -45 100 -135 194 -233 243 -164 84 -368 72 -513 -30 -31 -22 -62 -40 -67
-40 -6 0 -23 8 -37 19 -49 33 -198 109 -296 150 -264 110 -548 176 -841 197
-55 3 -101 8 -103 9 -6 5 269 835 276 835 4 0 131 -29 282 -65 151 -36 310
-73 352 -82 l78 -16 5 -36 c18 -120 66 -214 142 -281 254 -224 656 -68 692
269 13 130 -27 246 -117 337 -91 92 -221 138 -342 123z m-1230 -1264 c36 -3
76 -7 90 -10 14 -2 45 -6 70 -10 245 -35 510 -117 716 -221 379 -192 608 -444
688 -758 19 -77 15 -277 -8 -361 -19 -71 -105 -247 -140 -290 -14 -16 -38 -46
-53 -65 -109 -135 -312 -285 -524 -388 -148 -71 -438 -164 -584 -186 -22 -4
-65 -11 -95 -16 -205 -35 -638 -35 -840 0 -30 5 -71 12 -90 15 -398 67 -800
257 -1035 490 -202 200 -296 400 -297 630 0 55 2 114 6 130 4 17 9 44 12 60 8
46 62 174 96 230 140 230 406 443 708 565 30 12 69 28 85 35 61 27 280 87 398
110 141 27 188 33 312 41 50 4 91 8 93 9 5 4 325 -3 392 -10z"/>
<path d="M2204 3942 c-211 -81 -275 -350 -121 -506 45 -46 77 -65 144 -85 144
-42 295 27 364 167 19 38 24 63 23 132 0 72 -4 93 -26 136 -73 140 -244 209
-384 156z"/>
<path d="M3568 3945 c-161 -59 -247 -228 -198 -388 32 -101 97 -166 205 -202
146 -49 298 16 373 160 22 42 26 64 26 130 1 101 -30 172 -103 237 -79 72
-207 98 -303 63z"/>
<path d="M2291 2899 c-34 -14 -50 -39 -51 -78 0 -80 188 -199 390 -245 114
-27 171 -31 380 -30 169 1 222 5 302 22 170 37 317 109 391 192 30 32 35 44
30 72 -6 39 -26 64 -58 72 -31 8 -62 -5 -105 -43 -19 -17 -39 -31 -45 -32 -5
-1 -248 -3 -539 -4 l-528 -1 -32 23 c-91 67 -95 68 -135 52z"/>
</g>
</svg>
