<svg width="217" height="36" viewBox="0 0 217 36" fill="none" xmlns="http://www.w3.org/2000/svg">
<rect width="217" height="36" rx="4" fill="#FDB755"/>
<path d="M19.9624 23.612C19.225 23.612 18.511 23.5 17.8204 23.276C17.139 23.0427 16.6024 22.744 16.2104 22.38L16.7284 21.288C17.1017 21.624 17.5777 21.8993 18.1564 22.114C18.7444 22.3193 19.3464 22.422 19.9624 22.422C20.7744 22.422 21.3811 22.2867 21.7824 22.016C22.1837 21.736 22.3844 21.3673 22.3844 20.91C22.3844 20.574 22.2724 20.3033 22.0484 20.098C21.8337 19.8833 21.5631 19.72 21.2364 19.608C20.919 19.496 20.4664 19.37 19.8784 19.23C19.141 19.0527 18.5437 18.8753 18.0864 18.698C17.6384 18.5207 17.251 18.25 16.9244 17.886C16.607 17.5127 16.4484 17.0133 16.4484 16.388C16.4484 15.8653 16.5837 15.394 16.8544 14.974C17.1344 14.554 17.5544 14.218 18.1144 13.966C18.6744 13.714 19.3697 13.588 20.2004 13.588C20.779 13.588 21.3484 13.6627 21.9084 13.812C22.4684 13.9613 22.949 14.176 23.3504 14.456L22.8884 15.576C22.4777 15.3147 22.0391 15.1187 21.5724 14.988C21.1057 14.848 20.6484 14.778 20.2004 14.778C19.407 14.778 18.8097 14.9227 18.4084 15.212C18.0164 15.5013 17.8204 15.8747 17.8204 16.332C17.8204 16.668 17.9324 16.9433 18.1564 17.158C18.3804 17.3633 18.6557 17.5267 18.9824 17.648C19.3184 17.76 19.771 17.8813 20.3404 18.012C21.0777 18.1893 21.6704 18.3667 22.1184 18.544C22.5664 18.7213 22.9491 18.992 23.2664 19.356C23.5931 19.72 23.7564 20.21 23.7564 20.826C23.7564 21.3393 23.6164 21.8107 23.3364 22.24C23.0564 22.66 22.6317 22.996 22.0624 23.248C21.4931 23.4907 20.7931 23.612 19.9624 23.612ZM34.2297 13.7V23.5H32.8297V19.132H27.2017V23.5H25.8017V13.7H27.2017V17.914H32.8297V13.7H34.2297ZM41.587 23.612C40.5977 23.612 39.7064 23.3973 38.913 22.968C38.1197 22.5293 37.4944 21.9273 37.037 21.162C36.589 20.3967 36.365 19.5427 36.365 18.6C36.365 17.6573 36.589 16.8033 37.037 16.038C37.4944 15.2727 38.1197 14.6753 38.913 14.246C39.7064 13.8073 40.5977 13.588 41.587 13.588C42.567 13.588 43.4537 13.8073 44.247 14.246C45.0404 14.6753 45.661 15.2727 46.109 16.038C46.557 16.794 46.781 17.648 46.781 18.6C46.781 19.552 46.557 20.4107 46.109 21.176C45.661 21.932 45.0404 22.5293 44.247 22.968C43.4537 23.3973 42.567 23.612 41.587 23.612ZM41.587 22.366C42.3057 22.366 42.9497 22.2027 43.519 21.876C44.0977 21.5493 44.5504 21.1013 44.877 20.532C45.213 19.9533 45.381 19.3093 45.381 18.6C45.381 17.8907 45.213 17.2513 44.877 16.682C44.5504 16.1033 44.0977 15.6507 43.519 15.324C42.9497 14.9973 42.3057 14.834 41.587 14.834C40.8684 14.834 40.215 14.9973 39.627 15.324C39.0484 15.6507 38.591 16.1033 38.255 16.682C37.9284 17.2513 37.765 17.8907 37.765 18.6C37.765 19.3093 37.9284 19.9533 38.255 20.532C38.591 21.1013 39.0484 21.5493 39.627 21.876C40.215 22.2027 40.8684 22.366 41.587 22.366ZM62.4524 13.7L59.1764 23.5H57.7064L55.0324 15.674L52.3584 23.5H50.8604L47.5844 13.7H49.0264L51.6724 21.666L54.4304 13.7H55.7184L58.4204 21.708L61.1224 13.7H62.4524ZM77.2158 23.5L77.2018 16.36L73.6598 22.31H73.0158L69.4738 16.402V23.5H68.1298V13.7H69.2778L73.3658 20.588L77.3978 13.7H78.5458L78.5598 23.5H77.2158ZM88.6129 22.282V23.5H81.5009V13.7H88.4169V14.918H82.9009V17.928H87.8149V19.118H82.9009V22.282H88.6129ZM96.5856 14.918H93.2256V13.7H101.332V14.918H97.9716V23.5H96.5856V14.918ZM111.284 13.7V23.5H109.884V19.132H104.256V23.5H102.856V13.7H104.256V17.914H109.884V13.7H111.284ZM121.33 22.282V23.5H114.218V13.7H121.134V14.918H115.618V17.928H120.532V19.118H115.618V22.282H121.33ZM133.95 18.418C134.52 18.5767 134.968 18.866 135.294 19.286C135.621 19.6967 135.784 20.2193 135.784 20.854C135.784 21.7033 135.462 22.3567 134.818 22.814C134.184 23.2713 133.255 23.5 132.032 23.5H127.356V13.7H131.752C132.872 13.7 133.736 13.924 134.342 14.372C134.958 14.82 135.266 15.4407 135.266 16.234C135.266 16.7473 135.145 17.1907 134.902 17.564C134.669 17.9373 134.352 18.222 133.95 18.418ZM128.756 14.834V17.97H131.626C132.345 17.97 132.896 17.8393 133.278 17.578C133.67 17.3073 133.866 16.9153 133.866 16.402C133.866 15.8887 133.67 15.5013 133.278 15.24C132.896 14.9693 132.345 14.834 131.626 14.834H128.756ZM131.976 22.366C132.77 22.366 133.367 22.2353 133.768 21.974C134.17 21.7127 134.37 21.302 134.37 20.742C134.37 19.65 133.572 19.104 131.976 19.104H128.756V22.366H131.976ZM145.064 22.282V23.5H137.952V13.7H144.868V14.918H139.352V17.928H144.266V19.118H139.352V22.282H145.064ZM150.187 23.612C149.45 23.612 148.736 23.5 148.045 23.276C147.364 23.0427 146.827 22.744 146.435 22.38L146.953 21.288C147.326 21.624 147.802 21.8993 148.381 22.114C148.969 22.3193 149.571 22.422 150.187 22.422C150.999 22.422 151.606 22.2867 152.007 22.016C152.408 21.736 152.609 21.3673 152.609 20.91C152.609 20.574 152.497 20.3033 152.273 20.098C152.058 19.8833 151.788 19.72 151.461 19.608C151.144 19.496 150.691 19.37 150.103 19.23C149.366 19.0527 148.768 18.8753 148.311 18.698C147.863 18.5207 147.476 18.25 147.149 17.886C146.832 17.5127 146.673 17.0133 146.673 16.388C146.673 15.8653 146.808 15.394 147.079 14.974C147.359 14.554 147.779 14.218 148.339 13.966C148.899 13.714 149.594 13.588 150.425 13.588C151.004 13.588 151.573 13.6627 152.133 13.812C152.693 13.9613 153.174 14.176 153.575 14.456L153.113 15.576C152.702 15.3147 152.264 15.1187 151.797 14.988C151.33 14.848 150.873 14.778 150.425 14.778C149.632 14.778 149.034 14.9227 148.633 15.212C148.241 15.5013 148.045 15.8747 148.045 16.332C148.045 16.668 148.157 16.9433 148.381 17.158C148.605 17.3633 148.88 17.5267 149.207 17.648C149.543 17.76 149.996 17.8813 150.565 18.012C151.302 18.1893 151.895 18.3667 152.343 18.544C152.791 18.7213 153.174 18.992 153.491 19.356C153.818 19.72 153.981 20.21 153.981 20.826C153.981 21.3393 153.841 21.8107 153.561 22.24C153.281 22.66 152.856 22.996 152.287 23.248C151.718 23.4907 151.018 23.612 150.187 23.612ZM157.836 14.918H154.476V13.7H162.582V14.918H159.222V23.5H157.836V14.918ZM169.812 14.918H166.452V13.7H174.558V14.918H171.198V23.5H169.812V14.918ZM176.083 13.7H177.483V23.5H176.083V13.7ZM189.503 23.5L189.489 16.36L185.947 22.31H185.303L181.761 16.402V23.5H180.417V13.7H181.565L185.653 20.588L189.685 13.7H190.833L190.847 23.5H189.503ZM200.9 22.282V23.5H193.788V13.7H200.704V14.918H195.188V17.928H200.102V19.118H195.188V22.282H200.9Z" fill="white"/>
</svg>
