<svg width="89" height="17" viewBox="0 0 89 17" fill="none" xmlns="http://www.w3.org/2000/svg">
<path d="M2.23269 6.944C2.49935 6.45333 2.89402 6.08 3.41669 5.824C3.93935 5.568 4.57402 5.44 5.32069 5.44V6.928C5.23535 6.91733 5.11802 6.912 4.96869 6.912C4.13669 6.912 3.48069 7.16267 3.00069 7.664C2.53135 8.15467 2.29669 8.85867 2.29669 9.776V14H0.760688V5.52H2.23269V6.944ZM10.0586 0.527999H11.4506L6.17056 15.6H4.77856L10.0586 0.527999ZM11.2664 17.2C10.8931 17.2 10.5464 17.1573 10.2264 17.072C9.90644 16.9867 9.63977 16.8587 9.42644 16.688L9.92244 15.504C10.2424 15.7707 10.6584 15.904 11.1704 15.904C11.5758 15.904 11.8851 15.776 12.0984 15.52C12.3224 15.2747 12.4344 14.9067 12.4344 14.416V5.52H13.9704V14.384C13.9704 15.2587 13.7358 15.9467 13.2664 16.448C12.7971 16.9493 12.1304 17.2 11.2664 17.2ZM13.2024 3.888C12.9038 3.888 12.6531 3.792 12.4504 3.6C12.2584 3.408 12.1624 3.17333 12.1624 2.896C12.1624 2.61867 12.2584 2.384 12.4504 2.192C12.6531 1.98933 12.9038 1.888 13.2024 1.888C13.5011 1.888 13.7464 1.984 13.9384 2.176C14.1411 2.35733 14.2424 2.58667 14.2424 2.864C14.2424 3.152 14.1411 3.39733 13.9384 3.6C13.7464 3.792 13.5011 3.888 13.2024 3.888ZM19.9893 5.44C21.1626 5.44 22.0586 5.728 22.6773 6.304C23.3066 6.88 23.6213 7.73867 23.6213 8.88V14H22.1653V12.88C21.9093 13.2747 21.5413 13.5787 21.0613 13.792C20.592 13.9947 20.032 14.096 19.3813 14.096C18.432 14.096 17.6693 13.8667 17.0933 13.408C16.528 12.9493 16.2453 12.3467 16.2453 11.6C16.2453 10.8533 16.5173 10.256 17.0613 9.808C17.6053 9.34933 18.4693 9.12 19.6533 9.12H22.0853V8.816C22.0853 8.15467 21.8933 7.648 21.5093 7.296C21.1253 6.944 20.56 6.768 19.8133 6.768C19.312 6.768 18.8213 6.85333 18.3413 7.024C17.8613 7.184 17.456 7.40267 17.1253 7.68L16.4853 6.528C16.9226 6.176 17.4453 5.90933 18.0533 5.728C18.6613 5.536 19.3066 5.44 19.9893 5.44ZM19.6373 12.912C20.224 12.912 20.7306 12.784 21.1573 12.528C21.584 12.2613 21.8933 11.888 22.0853 11.408V10.224H19.7173C18.416 10.224 17.7653 10.6613 17.7653 11.536C17.7653 11.9627 17.9306 12.2987 18.2613 12.544C18.592 12.7893 19.0506 12.912 19.6373 12.912ZM33.8116 5.52L30.0996 14H28.5316L24.8196 5.52H26.4196L29.3316 12.32L32.3076 5.52H33.8116ZM38.0674 5.44C39.2408 5.44 40.1368 5.728 40.7554 6.304C41.3848 6.88 41.6994 7.73867 41.6994 8.88V14H40.2434V12.88C39.9874 13.2747 39.6194 13.5787 39.1394 13.792C38.6701 13.9947 38.1101 14.096 37.4594 14.096C36.5101 14.096 35.7474 13.8667 35.1714 13.408C34.6061 12.9493 34.3234 12.3467 34.3234 11.6C34.3234 10.8533 34.5954 10.256 35.1394 9.808C35.6834 9.34933 36.5474 9.12 37.7314 9.12H40.1634V8.816C40.1634 8.15467 39.9714 7.648 39.5874 7.296C39.2034 6.944 38.6381 6.768 37.8914 6.768C37.3901 6.768 36.8994 6.85333 36.4194 7.024C35.9394 7.184 35.5341 7.40267 35.2034 7.68L34.5634 6.528C35.0008 6.176 35.5234 5.90933 36.1314 5.728C36.7394 5.536 37.3848 5.44 38.0674 5.44ZM37.7154 12.912C38.3021 12.912 38.8088 12.784 39.2354 12.528C39.6621 12.2613 39.9714 11.888 40.1634 11.408V10.224H37.7954C36.4941 10.224 35.8434 10.6613 35.8434 11.536C35.8434 11.9627 36.0088 12.2987 36.3394 12.544C36.6701 12.7893 37.1288 12.912 37.7154 12.912ZM46.9739 14.096C46.2806 14.096 45.6139 14.0053 44.9739 13.824C44.3339 13.632 43.8326 13.392 43.4699 13.104L44.1099 11.888C44.4833 12.1547 44.9366 12.368 45.4699 12.528C46.0033 12.688 46.5419 12.768 47.0859 12.768C48.4299 12.768 49.1019 12.384 49.1019 11.616C49.1019 11.36 49.0113 11.1573 48.8299 11.008C48.6486 10.8587 48.4193 10.752 48.1419 10.688C47.8753 10.6133 47.4913 10.5333 46.9899 10.448C46.3073 10.3413 45.7473 10.2187 45.3099 10.08C44.8833 9.94133 44.5153 9.70667 44.2059 9.376C43.8966 9.04533 43.7419 8.58133 43.7419 7.984C43.7419 7.216 44.0619 6.60267 44.7019 6.144C45.3419 5.67467 46.2006 5.44 47.2779 5.44C47.8433 5.44 48.4086 5.50933 48.9739 5.648C49.5393 5.78667 50.0033 5.97333 50.3659 6.208L49.7099 7.424C49.0166 6.976 48.2006 6.752 47.2619 6.752C46.6113 6.752 46.1153 6.85867 45.7739 7.072C45.4326 7.28533 45.2619 7.568 45.2619 7.92C45.2619 8.19733 45.3579 8.416 45.5499 8.576C45.7419 8.736 45.9766 8.85333 46.2539 8.928C46.5419 9.00267 46.9419 9.088 47.4539 9.184C48.1366 9.30133 48.6859 9.42933 49.1019 9.568C49.5286 9.696 49.8913 9.92 50.1899 10.24C50.4886 10.56 50.6379 11.008 50.6379 11.584C50.6379 12.352 50.3073 12.9653 49.6459 13.424C48.9953 13.872 48.1046 14.096 46.9739 14.096ZM56.2536 14.096C55.3896 14.096 54.6162 13.9093 53.9336 13.536C53.2616 13.1627 52.7336 12.6507 52.3496 12C51.9656 11.3387 51.7736 10.592 51.7736 9.76C51.7736 8.928 51.9656 8.18667 52.3496 7.536C52.7336 6.87467 53.2616 6.36267 53.9336 6C54.6162 5.62667 55.3896 5.44 56.2536 5.44C57.0216 5.44 57.7042 5.59467 58.3016 5.904C58.9096 6.21333 59.3789 6.66133 59.7096 7.248L58.5416 8C58.2749 7.59467 57.9442 7.29067 57.5496 7.088C57.1549 6.88533 56.7176 6.784 56.2376 6.784C55.6829 6.784 55.1816 6.90667 54.7336 7.152C54.2962 7.39733 53.9496 7.74933 53.6936 8.208C53.4482 8.656 53.3256 9.17333 53.3256 9.76C53.3256 10.3573 53.4482 10.8853 53.6936 11.344C53.9496 11.792 54.2962 12.1387 54.7336 12.384C55.1816 12.6293 55.6829 12.752 56.2376 12.752C56.7176 12.752 57.1549 12.6507 57.5496 12.448C57.9442 12.2453 58.2749 11.9413 58.5416 11.536L59.7096 12.272C59.3789 12.8587 58.9096 13.312 58.3016 13.632C57.7042 13.9413 57.0216 14.096 56.2536 14.096ZM63.1702 6.944C63.4369 6.45333 63.8315 6.08 64.3542 5.824C64.8769 5.568 65.5115 5.44 66.2582 5.44V6.928C66.1729 6.91733 66.0555 6.912 65.9062 6.912C65.0742 6.912 64.4182 7.16267 63.9382 7.664C63.4689 8.15467 63.2342 8.85867 63.2342 9.776V14H61.6982V5.52H63.1702V6.944ZM68.1513 5.52H69.6873V14H68.1513V5.52ZM68.9193 3.888C68.6206 3.888 68.37 3.792 68.1673 3.6C67.9753 3.408 67.8793 3.17333 67.8793 2.896C67.8793 2.61867 67.9753 2.384 68.1673 2.192C68.37 1.98933 68.6206 1.888 68.9193 1.888C69.218 1.888 69.4633 1.984 69.6553 2.176C69.858 2.35733 69.9593 2.58667 69.9593 2.864C69.9593 3.152 69.858 3.39733 69.6553 3.6C69.4633 3.792 69.218 3.888 68.9193 3.888ZM77.1161 5.44C77.9374 5.44 78.6734 5.62133 79.3241 5.984C79.9747 6.34667 80.4814 6.85333 80.8441 7.504C81.2174 8.15467 81.4041 8.90667 81.4041 9.76C81.4041 10.6133 81.2174 11.3707 80.8441 12.032C80.4814 12.6827 79.9747 13.1893 79.3241 13.552C78.6734 13.9147 77.9374 14.096 77.1161 14.096C76.5081 14.096 75.9481 13.9787 75.4361 13.744C74.9347 13.5093 74.5081 13.168 74.1561 12.72V17.104H72.6201V5.52H74.0921V6.864C74.4334 6.39467 74.8654 6.04267 75.3881 5.808C75.9107 5.56267 76.4867 5.44 77.1161 5.44ZM76.9881 12.752C77.5321 12.752 78.0174 12.6293 78.4441 12.384C78.8814 12.128 79.2227 11.776 79.4681 11.328C79.7241 10.8693 79.8521 10.3467 79.8521 9.76C79.8521 9.17333 79.7241 8.656 79.4681 8.208C79.2227 7.74933 78.8814 7.39733 78.4441 7.152C78.0174 6.90667 77.5321 6.784 76.9881 6.784C76.4547 6.784 75.9694 6.912 75.5321 7.168C75.1054 7.41333 74.7641 7.76 74.5081 8.208C74.2627 8.656 74.1401 9.17333 74.1401 9.76C74.1401 10.3467 74.2627 10.8693 74.5081 11.328C74.7534 11.776 75.0947 12.128 75.5321 12.384C75.9694 12.6293 76.4547 12.752 76.9881 12.752ZM88.2943 13.504C88.0703 13.696 87.793 13.8453 87.4623 13.952C87.1316 14.048 86.7903 14.096 86.4383 14.096C85.585 14.096 84.9236 13.8667 84.4543 13.408C83.985 12.9493 83.7503 12.2933 83.7503 11.44V6.784H82.3103V5.52H83.7503V3.664H85.2863V5.52H87.7183V6.784H85.2863V11.376C85.2863 11.8347 85.3983 12.1867 85.6223 12.432C85.857 12.6773 86.1876 12.8 86.6143 12.8C87.0836 12.8 87.4836 12.6667 87.8143 12.4L88.2943 13.504Z" fill="#93918F"/>
</svg>
